<svg id="new" xmlns="http://www.w3.org/2000/svg" xmlns:xlink="http://www.w3.org/1999/xlink" viewBox="0 0 562.21 650.57"><defs><style>.cls-1{fill:#2b5f85;}.cls-2{fill:#294d70;}.cls-3{font-size:184.33px;font-family:GillSansMT-Bold, Gill Sans MT;font-weight:700;letter-spacing:0.03em;}.cls-3,.cls-8,.cls-9{fill:#fff;stroke:#231f20;stroke-width:0.5px;}.cls-3,.cls-8{stroke-miterlimit:10;}.cls-4{letter-spacing:0em;}.cls-5{letter-spacing:0.03em;}.cls-6{opacity:0.05;}.cls-7{fill:url(#linear-gradient);}.cls-9{stroke-linecap:round;stroke-linejoin:round;}</style><linearGradient id="linear-gradient" x1="269.91" y1="255.62" x2="269.91" y2="33.1" gradientUnits="userSpaceOnUse"><stop offset="0.01" stop-color="#fff" stop-opacity="0.3"/><stop offset="1" stop-color="#fff"/></linearGradient></defs><polygon class="cls-1" points="12.52 480.71 12.5 169.84 281.09 14.44 549.69 169.87 549.71 480.73 281.12 636.13 12.52 480.71"/><path class="cls-2" d="M281.09,28.88l256.1,148.2,0,296.45L281.12,621.69,25,473.5l0-296.45L281.09,28.88m0-28.88L0,162.63,0,487.91l281.1,162.66L562.21,487.94l0-325.28L281.09,0Z"/><text class="cls-3" transform="translate(51.06 433.85)">hi<tspan class="cls-4" x="168.48" y="0">k</tspan><tspan class="cls-5" x="270.22" y="0">er</tspan></text><g class="cls-6"><path class="cls-7" d="M482.2,149.19,281.56,33.1,57.62,162.67c36.89,54.94,116.28,93,208.28,93C365.25,255.62,449.9,211.3,482.2,149.19Z"/></g><path class="cls-8" d="M435.48,235.14l1.07-2.83a3.58,3.58,0,0,0-1.84-4.56,3.26,3.26,0,0,0-4.29,2l-1,2.63-28.29-6.15L383.64,204l-.62-.8-2-1.69-13.74-3.34-1-.09-17.7-1.85-1.75.11-1.45.19-29.13,11.24c-3.41,1-6,3-6.85,5.84L301,242.59a10.67,10.67,0,0,0,4.1,8.83c1.51,1.29,2.35,1.75,3.52,1.81,4.71.22,8.25-4.23,9.44-8.18l7.42-24.8L340.37,216l-12.84,36.62h0c-.07.19-.14.38-.19.57a6.74,6.74,0,0,0-.16,3.49,7.71,7.71,0,0,0,1.67,3.36l14.59,17.44,17.23,20.59v32.38c0,4.76,4.82,8.62,10.75,8.62s10.74-3.86,10.74-8.62v-35a7.51,7.51,0,0,0-1.83-4.81L361.21,267.8c.2-.43.38-.86.54-1.31l14.07-40.14,9.4,11.91a10.87,10.87,0,0,0,6.26,3.71L418,247.74c.69.15,2.86.66,5.19,1.17L391.13,334a3.57,3.57,0,0,0,1.84,4.56,3.19,3.19,0,0,0,.73.21,3.31,3.31,0,0,0,3.57-2.19L429.89,250c3.75.21,7.58-.66,9.21-5.31C440.41,240.92,438.59,237.52,435.48,235.14Z"/><path class="cls-8" d="M341.2,284.37l-14.48-16.69-8.53,20.48h0l-17,40.2c-2,4.76.8,9.47,6.29,10.52a12.77,12.77,0,0,0,5.83-.31,11.93,11.93,0,0,0,7.76-6.43l17-40.2h0Z"/><ellipse class="cls-9" cx="371.71" cy="169.5" rx="22.71" ry="23.71"/></svg>