<svg id="new" xmlns="http://www.w3.org/2000/svg" xmlns:xlink="http://www.w3.org/1999/xlink" viewBox="0 0 562.21 650.57"><defs><style>.cls-1{fill:#33557d;}.cls-2{fill:#254263;}.cls-3{font-size:184.33px;font-family:GillSansMT-Bold, Gill Sans MT;font-weight:700;letter-spacing:0.03em;}.cls-3,.cls-8{fill:#f0eaf4;stroke:#231f20;stroke-miterlimit:10;stroke-width:0.5px;}.cls-4{letter-spacing:0em;}.cls-5{letter-spacing:0.03em;}.cls-6{opacity:0.05;}.cls-7{fill:url(#linear-gradient);}</style><linearGradient id="linear-gradient" x1="270.91" y1="241.62" x2="270.91" y2="19.1" gradientUnits="userSpaceOnUse"><stop offset="0.01" stop-color="#fff" stop-opacity="0.3"/><stop offset="1" stop-color="#fff"/></linearGradient></defs><polygon class="cls-1" points="5.02 485.03 5 165.51 281.09 5.78 557.19 165.54 557.21 485.06 281.12 644.8 5.02 485.03"/><path class="cls-2" d="M281.09,11.55l271.1,156.87,0,313.76L281.12,639,10,482.15,10,168.4,281.09,11.55m0-11.55L0,162.63,0,487.91l281.1,162.66L562.21,487.94l0-325.28L281.09,0Z"/><text class="cls-3" transform="translate(51.06 445.85)">hi<tspan class="cls-4" x="168.48" y="0">k</tspan><tspan class="cls-5" x="270.22" y="0">er</tspan></text><g class="cls-6"><path class="cls-7" d="M483.2,135.19,282.56,19.1,58.62,148.67c36.89,54.94,116.28,93,208.28,93C366.25,241.62,450.9,197.3,483.2,135.19Z"/></g><path class="cls-8" d="M326,345.13c3.44-11.21,7.32-23.52,10.71-34.56a3,3,0,0,0-1.75-3.63c-6.72-2.59-13-5-20.46-7.81a2.55,2.55,0,0,0-3.32,1.63c-6.53,20.94-5.7,18.3-12.18,39.25-.58,1.85-1,4.92-.26,5.28,3.82,2,8.9,1,13.25,1.13,2.51.09,12.38.54,14-1.29"/><path class="cls-8" d="M353.6,309.43a9.7,9.7,0,0,1,4.34,2.71c1.38,1.56,2,3.45,2.46,8.19.57,6.27,1.3,12.52,1.81,18.8,0,.39-.24,5.7.4,6.25.4.33,5.66.76,6.5.76,6.28,0,8.8.09,15.08.15l6.56.07a.43.43,0,0,0,.43-.49c-1.59-10.29-4.21-24.73-5.6-34.61-.77-5.5-1.92-10.78-5-15.54-4.11-6.31-10.2-9.76-17-12.36-5.32-2-10.55-4.26-16-6.5a.43.43,0,0,1-.25-.53c3.71-11.93,7.36-23.64,11.16-35.81a.44.44,0,0,1,.77-.12c.94,1.29,1.7,2.33,2.43,3.38a28.28,28.28,0,0,0,18.15,11.77c4.63.94,9.32,1.59,14,2.37,2.63.44,6,.08,7.64,1.6s1.34,4.86,1.66,7.44c1.88,15.18,3.69,30.38,5.53,45.57.68,5.63,2.94,26.48,3.77,33.33a.42.42,0,0,0,.57.33c2.79-.88,3.12-.23,7.44-.87a2.4,2.4,0,0,0,2.05-2.65c-2.65-21.14-7.8-63.53-10.1-83.19a2.32,2.32,0,0,1,.84-1.86c5.93-4.61,6.88-13.55,1-18a12.94,12.94,0,0,1-5.75-9.85c-.3-2.7-3.07-4.15-5.63-3.62a5,5,0,0,0-4,5.73c.13,1,.2,1.95.31,3.11l-8.5-1.44c-10.78-1.82-8-.39-14.14-8.74-5.32-7.29-10.88-14.41-16.53-21.44a12.66,12.66,0,0,0-10.55-4.85,89.87,89.87,0,0,1-15.88-1.13,18.75,18.75,0,0,0-11.74,1.67c-8.92,4.64-17.82,9.31-26.65,14.11-7.88,4.28-13.45,10.9-17.33,19.11-3,6.29-6.54,12.26-10,18.27-3.78,6.48-1.91,14.52,4.14,17.9s13.09.85,16.77-5.84c4.06-7.38,8.13-14.76,12.09-22.2a16.51,16.51,0,0,1,8.17-7.43c-.18,1.08-.26,1.84-.43,2.57q-3.54,15.18-7.09,30.36a22.31,22.31,0,0,0,1.73,15.89,24.08,24.08,0,0,0,8.69,9.2C325,299.83,349.84,308.18,353.6,309.43Z"/><path class="cls-8" d="M325.34,166a26.35,26.35,0,0,1,52.7.94c-.22,14.48-12.32,26.32-26.59,26.05A26.37,26.37,0,0,1,325.34,166Z"/></svg>